<svg xmlns="http://www.w3.org/2000/svg" version="1.1" xmlns:xlink="http://www.w3.org/1999/xlink" xmlns:svgjs="http://svgjs.dev/svgjs" width="2000" height="656" viewBox="0 0 2000 656"><g transform="matrix(1,0,0,1,-1.2121212121212466,0.12803886696593736)"><svg viewBox="0 0 396 130" data-background-color="#dee5ed" preserveAspectRatio="xMidYMid meet" height="656" width="2000" xmlns="http://www.w3.org/2000/svg" xmlns:xlink="http://www.w3.org/1999/xlink"><g id="tight-bounds" transform="matrix(1,0,0,1,0.2400000000000091,-0.025373555953621008)"><svg viewBox="0 0 395.52 130.05074711190727" height="130.05074711190727" width="395.52"><g><svg viewBox="0 0 620.519752526946 204.03281101796404" height="130.05074711190727" width="395.52"><g transform="matrix(1,0,0,1,224.99975252694608,57.60921988023951)"><svg viewBox="0 0 395.52 88.81437125748502" height="88.81437125748502" width="395.52"><g id="textblocktransform"><svg viewBox="0 0 395.52 88.81437125748502" height="88.81437125748502" width="395.52" id="textblock"><g><svg viewBox="0 0 395.52 88.81437125748502" height="88.81437125748502" width="395.52"><g transform="matrix(1,0,0,1,0,0)"><svg width="395.52" viewBox="1.6 -37 166.99 37.5" height="88.81437125748502" data-palette-color="#b44e09"><path d="M15.45 0L10.4 0 1.6-36.5 5.7-36.5 12.95-5.5 13.05-5.5 20.55-33.5 25.65-33.5 33.15-5.5 33.25-5.5 40.5-36.5 44.6-36.5 35.8 0 30.75 0 23.15-28 23.05-28 15.45 0ZM59 0.5L59 0.5Q52.5 0.5 48.97-3 45.45-6.5 45.45-13L45.45-13Q45.45-19.3 48.72-22.9 52-26.5 57.8-26.5L57.8-26.5Q63.35-26.5 66.3-23.13 69.25-19.75 69.25-13.45L69.25-13.45Q69.25-12.95 69.25-12.4 69.25-11.85 69.2-11.45L69.2-11.45 47.6-11.45 47.6-14.65 66.3-14.65 65.55-13.6Q65.55-18.45 63.6-20.85 61.65-23.25 57.8-23.25L57.8-23.25Q53.7-23.25 51.5-20.68 49.3-18.1 49.3-13.35L49.3-13.35 49.3-12.35Q49.3-7.6 51.72-5.23 54.15-2.85 58.85-2.85L58.85-2.85Q61-2.85 63.32-3.3 65.65-3.75 67.5-4.5L67.5-4.5 68.1-1.3Q66.2-0.45 63.8 0.03 61.4 0.5 59 0.5ZM88.5 0.5L88.5 0.5Q85.65 0.5 83.22-0.58 80.8-1.65 79.4-3.5L79.4-3.5 79.3-3.5 79.3 0 75.5 0 75.5-36.5 79.45-36.5 79.45-22.5 79.55-22.5Q80.9-24.4 83.27-25.45 85.65-26.5 88.5-26.5L88.5-26.5Q93.7-26.5 96.6-22.93 99.5-19.35 99.5-13L99.5-13Q99.5-6.65 96.6-3.08 93.7 0.5 88.5 0.5ZM87.65-2.85L87.65-2.85Q91.5-2.85 93.57-5.48 95.65-8.1 95.65-13L95.65-13Q95.65-17.9 93.57-20.53 91.5-23.15 87.65-23.15L87.65-23.15Q85.3-23.15 83.45-22.18 81.6-21.2 80.52-19.53 79.45-17.85 79.45-15.6L79.45-15.6 79.45-10.4Q79.45-8.2 80.52-6.5 81.6-4.8 83.45-3.83 85.3-2.85 87.65-2.85ZM122.64 0.5L122.64 0.5Q117.04 0.5 112.82-1.83 108.59-4.15 106.29-8.38 103.99-12.6 103.99-18.25L103.99-18.25Q103.99-23.95 106.29-28.15 108.59-32.35 112.82-34.68 117.04-37 122.64-37L122.64-37Q128.34-37 132.52-34.68 136.69-32.35 139.02-28.15 141.34-23.95 141.34-18.25L141.34-18.25Q141.34-12.6 139.02-8.38 136.69-4.15 132.52-1.83 128.34 0.5 122.64 0.5ZM122.64-3.15L122.64-3.15Q127.09-3.15 130.37-5.03 133.64-6.9 135.44-10.28 137.24-13.65 137.24-18.25L137.24-18.25Q137.24-22.85 135.44-26.23 133.64-29.6 130.37-31.48 127.09-33.35 122.64-33.35L122.64-33.35Q118.24-33.35 114.94-31.48 111.64-29.6 109.87-26.23 108.09-22.85 108.09-18.25L108.09-18.25Q108.09-13.65 109.87-10.28 111.64-6.9 114.94-5.03 118.24-3.15 122.64-3.15ZM149.49 0L144.94 0 154.09-13.1 145.09-26 149.64-26 156.69-15.3 156.79-15.3 163.89-26 168.44-26 159.44-13.1 168.59 0 164.04 0 156.79-10.9 156.69-10.9 149.49 0Z" opacity="1" transform="matrix(1,0,0,1,0,0)" fill="#b44e09" class="wordmark-text-0" data-fill-palette-color="primary" id="text-0"></path></svg></g></svg></g></svg></g></svg></g><g><svg viewBox="0 0 204.03281101796404 204.03281101796404" height="204.03281101796404" width="204.03281101796404"><g><svg></svg></g><g id="icon-0"><svg viewBox="0 0 204.03281101796404 204.03281101796404" height="204.03281101796404" width="204.03281101796404"><g><rect width="185.5187226107784" height="185.5187226107784" x="9.257044203592812" y="9.257044203592812" fill="#b44e09" data-fill-palette-color="accent"></rect><rect width="185.5187226107784" height="185.5187226107784" x="18.514088407185625" y="1.7763568394002505e-15" fill="#b44e09" opacity="0.5" data-fill-palette-color="accent"></rect></g><g transform="matrix(1,0,0,1,26.448697724550897,26.448697724550897)"><svg viewBox="0 0 151.13541556886224 151.13541556886224" height="151.13541556886224" width="151.13541556886224"><g><svg xmlns="http://www.w3.org/2000/svg" xmlns:xlink="http://www.w3.org/1999/xlink" version="1.1" x="0" y="0" viewBox="4.75 4.75 90.5 90.5" enable-background="new 0 0 100 100" xml:space="preserve" height="151.13541556886224" width="151.13541556886224" class="icon-dxe-0" data-fill-palette-color="quaternary" id="dxe-0"><g display="none" fill="#dee5ed" data-fill-palette-color="quaternary"><path display="inline" fill="#dee5ed" d="M95 5V95H5V5zM95.25 4.75H4.75V95.25H95.25z" data-fill-palette-color="quaternary"></path></g><g fill="#dee5ed" data-fill-palette-color="quaternary"><g fill="#dee5ed" data-fill-palette-color="quaternary"><path d="M50.932 61.328A1 1 0 0 0 49.977 60.627 1 1 0 0 0 49.588 60.706L43.552 63.252A1 1 0 0 0 43.008 63.812L41.277 68.283 38.488 70.515A1 1 0 0 0 38.332 70.671L37.732 71.421A1 1 0 0 0 37.854 72.798L39.208 73.982 37.537 81.503A1 1 0 0 0 37.57 82.053L38.92 85.878A1 1 0 0 0 39.863 86.545H43.238A0.997 0.997 0 0 0 44.194 85.254L42.696 80.33 44.387 72.72 51.364 64.222A1 1 0 0 0 51.545 63.289zM85.127 42.124A1 1 0 0 0 84.787 41.586L77.286 35.474A1 1 0 0 0 76.654 35.249H73.154A1 1 0 0 0 72.872 37.208L74.498 37.686 76.019 42.193C76.074 42.355 76.169 42.5 76.296 42.615L77.609 43.803C77.779 43.957 77.997 44.048 78.227 44.06L80.406 44.176 81.045 48.087A1 1 0 0 0 81.92 48.919L85.504 49.323A1 1 0 0 0 86.588 48.092zM91.311 16.276H91.304L91.27 16.277A1 1 0 0 0 90.599 16.567L90.597 16.569H90.596L90.595 16.57C89.652 17.515 88.53 18.126 87.737 18.126A1.12 1.12 0 0 1 87.063 17.922C86.717 17.675 86.392 17.367 86.048 17.04 85.301 16.332 84.455 15.529 83.204 15.236A6.9 6.9 0 0 0 81.055 15.08L80.986 15.085A5 5 0 0 0 80.618 15.122 7 7 0 0 0 78.933 15.582L65.418 10.929A1 1 0 0 0 64.392 11.16L51.434 23.875H48.093A1 1 0 0 0 47.464 24.098L42.214 28.348A1 1 0 0 0 41.973 28.633L31.431 47.263 25.092 48.907C24.707 49.007 24.418 49.325 24.355 49.718L24.23 50.506 15.138 60.796 12.365 60.916 11.366 59.023 12.84 55.794 17.315 55.386A1.5 1.5 0 0 0 18.673 53.755 1.49 1.49 0 0 0 17.183 52.392L11.702 52.885A1.5 1.5 0 0 0 10.473 53.756L8.333 58.447C8.138 58.873 8.152 59.355 8.371 59.77L10.157 63.156A1.5 1.5 0 0 0 11.481 63.955L15.905 63.765C16.309 63.748 16.696 63.565 16.966 63.26L23.352 56.031 22.606 60.718A1 1 0 0 0 22.689 61.301L26.424 69.237 23.812 72.5A1 1 0 0 0 23.934 73.877L25.488 75.236 23.617 83.657A1 1 0 0 0 23.65 84.207L25.15 88.457A1 1 0 0 0 26.093 89.124H29.843A1 1 0 0 0 30.8 87.832L29.127 82.334 30.994 73.934 39.469 67.154A1 1 0 0 0 39.777 66.734L41.655 61.882 47.971 59.217 60.233 54.044A1 1 0 0 0 60.604 53.773L67.086 46.211 68.345 45.776V50.163L64.015 51.679A1 1 0 0 0 63.347 52.685L63.597 56.685A1 1 0 0 0 64.998 57.538L71.248 54.788A1 1 0 0 0 71.771 54.25L75.906 44.089C76.002 43.852 76.004 43.587 75.912 43.349L74.027 38.51A1 1 0 0 0 73.165 37.876L69.485 37.618 70.082 34.038A1 1 0 0 0 70.003 33.452L67.125 27.253 67.466 27.04 71.213 34.092A1 1 0 0 0 72.22 34.615L76.22 34.115A1 1 0 0 0 77.096 33.123V27.123L79.696 25.173A1 1 0 0 0 80.081 24.543L80.096 24.454 80.835 20.169A5 5 0 0 1 81.32 20.07C81.59 20.032 81.899 19.993 82.144 19.993 82.281 19.993 82.333 20.006 82.335 20.006 82.541 20.077 82.867 20.28 83.212 20.494 83.965 20.961 84.902 21.543 85.981 21.613A6.4 6.4 0 0 0 87.276 21.564C89.471 21.254 91.355 19.779 92.21 17.708A0.997 0.997 0 0 0 91.311 16.276M11.479 63.455V63.448z" fill="#dee5ed" data-fill-palette-color="quaternary"></path></g></g></svg></g></svg></g></svg></g></svg></g></svg></g><defs></defs></svg><rect width="395.52" height="130.05074711190727" fill="none" stroke="none" visibility="hidden"></rect></g></svg></g></svg>